inDegrees=no
num_controls=7
num_derivatives=13
num_iterations=135
num_multipliers=7
num_parameters=0
num_slacks=7
num_states=26
objective=0.543117
objective_accelerations=0.064872
objective_balance=0.003416
objective_effort=0.047951
objective_height=0.417714
objective_ligament=0.009164
solver_duration=1436.383597
status=Solve_Succeeded
success=true
DataType=double
version=3
OpenSimVersion=4.5
endheader
time	/jointset/ground_pelvis/pelvis_tilt/value	/jointset/ground_pelvis/pelvis_tx/value	/jointset/ground_pelvis/pelvis_ty/value	/jointset/hip_r/hip_flexion_r/value	/jointset/hip_r/hip_adduction_r/value	/jointset/hip_r/hip_rotation_r/value	/jointset/back/lumbar_extension/value	/jointset/patellofemoral_r/patellar_flexion_r/value	/jointset/knee_r/knee_flexion_r/value	/jointset/knee_r/knee_adduction_r/value	/jointset/knee_r/knee_rotation_r/value	/jointset/ankle_r/ankle_angle_r/value	/jointset/subtalar_r/subtalar_angle_r/value	/jointset/ground_pelvis/pelvis_tilt/speed	/jointset/ground_pelvis/pelvis_tx/speed	/jointset/ground_pelvis/pelvis_ty/speed	/jointset/hip_r/hip_flexion_r/speed	/jointset/hip_r/hip_adduction_r/speed	/jointset/hip_r/hip_rotation_r/speed	/jointset/back/lumbar_extension/speed	/jointset/patellofemoral_r/patellar_flexion_r/speed	/jointset/knee_r/knee_flexion_r/speed	/jointset/knee_r/knee_adduction_r/speed	/jointset/knee_r/knee_rotation_r/speed	/jointset/ankle_r/ankle_angle_r/speed	/jointset/subtalar_r/subtalar_angle_r/speed	/forceset/tau_hip_flexion_r	/forceset/tau_hip_adduction_r	/forceset/tau_hip_rotation_r	/forceset/tau_knee_flexion_r	/forceset/tau_ankle_angle_r	/forceset/tau_subtalar_angle_r	/forceset/tau_lumbar_extension	lambda_cid13_p0	lambda_cid14_p0	lambda_cid14_p1	lambda_cid14_p2	lambda_cid14_p3	lambda_cid14_p4	lambda_cid14_p5	/jointset/ground_pelvis/pelvis_tilt/accel	/jointset/ground_pelvis/pelvis_tx/accel	/jointset/ground_pelvis/pelvis_ty/accel	/jointset/hip_r/hip_flexion_r/accel	/jointset/hip_r/hip_adduction_r/accel	/jointset/hip_r/hip_rotation_r/accel	/jointset/back/lumbar_extension/accel	/jointset/patellofemoral_r/patellar_flexion_r/accel	/jointset/knee_r/knee_flexion_r/accel	/jointset/knee_r/knee_adduction_r/accel	/jointset/knee_r/knee_rotation_r/accel	/jointset/ankle_r/ankle_angle_r/accel	/jointset/subtalar_r/subtalar_angle_r/accel	gamma_cid13_p0	gamma_cid14_p0	gamma_cid14_p1	gamma_cid14_p2	gamma_cid14_p3	gamma_cid14_p4	gamma_cid14_p5
1	-0.3425337315072802	-0.02319179690164258	0.5985542168739238	1.66348804288604	-0.2306744164050893	-0.09200328802618193	-0.436311371277299	1.546775193644414	1.546775193644482	-0.1636578101199234	0.1692627029229661	0.436328892446992	0.1139525513709995	0.0007176753917032248	0.002890176582328624	0.01750344187596966	-0.04669215243081418	0.003272533835303268	-0.01681499022298513	-0.000524780008529869	-0.04907428469572559	-0.0490742846957258	-0.008535832275182544	-0.001291982498376557	-0.002982859080860744	0.004778784121205088	-0.3191028526517657	0.01724631805319802	-0.002047199427978114	-0.5383015588886073	0.02563597403347955	0.007174986558965308	0.3249759254419101	-0.04261172664500831	-42.8205230493377	-7.332704967678819	5.000025874772537	19.88312462874688	-827.1763123555056	58.92986176006704	1.163309551605028	-0.01211505697727081	2.194531792514398	-6.291156889666685	0.1976957918898765	-0.1672021968685332	-0.02782385816121398	-6.108531568771638	-6.108531568771647	1.225974585351284	0.1686337245502204	-1.149698198729362	-0.1245150442314855	8.820138630246877e-09	1.643405419431467e-08	4.439479327312829e-08	6.218282176351969e-08	-7.681602884002327e-09	-1.063737430153013e-08	1.126129379783206e-07
1.01	-0.3424688319734925	-0.02316347827536403	0.5988387998101508	1.662707357950703	-0.2306318559687712	-0.09217616139399654	-0.4363172342230894	1.545979503216909	1.545979503216932	-0.1636782236344869	0.1692578420954685	0.4362415344755249	0.1139939227140027	0.01227121849886819	0.002778307892252552	0.03940551700687303	-0.1094352240803847	0.005238631963855316	-0.01775820623396027	-0.0006308401156297918	-0.1100498884547503	-0.1100498884547499	0.004453069870028274	0.0003192301413041606	-0.01449415762454356	0.00349120821789215	-0.3191718698766158	0.01730939525333704	-0.001989938826379567	-0.5377627554553982	0.02536349255603645	0.007193522274608199	0.3250501446862547	-0.04262198404504814	-42.89030723510275	-7.334324300824087	4.99737230334547	19.88398467833244	-826.9289855163231	58.88094792007311	1.152730922437559	-0.01001280814935942	2.186896935956868	-6.264434826329872	0.1959471791240197	-0.05764805806679526	0.0005482682704429083	-6.089991454318419	-6.089991454318318	1.335333661143053	0.1573150868569116	-1.152657688314311	-0.1314887255072187	1.754928204783743e-08	3.435704635261564e-08	9.829808572705008e-08	1.385524703335124e-07	-1.946136292038149e-08	-2.081249278380678e-08	2.474004436358919e-07
1.02	-0.3422881261622013	-0.02313613634261143	0.5993421738102025	1.661299531794126	-0.2305696584800088	-0.09235842027289842	-0.4363236486988351	1.544574473416843	1.544574473416822	-0.1635687510011854	0.169269083405	0.436038901117366	0.114022296325548	0.02387893089264643	0.002694837877140682	0.06126165464092718	-0.1721203966790582	0.007199944323854297	-0.01869209243912657	-0.0006350860125315053	-0.1709421592077968	-0.1709421592077967	0.0174413972967209	0.001928444908180828	-0.02603793641328838	0.002179237829539196	-0.319240887101462	0.01737247245347251	-0.001932678224785745	-0.5372239520221898	0.02509101107859092	0.007212057990244173	0.325124363930602	-0.04264198252124769	-42.96780422241289	-7.331514776209353	4.987410907001008	19.90871355175073	-826.7966636367715	58.87351558519428	1.174143408927649	-0.006435321984390081	2.185344293144557	-6.279577079487308	0.1967386381792553	-0.1653362357067655	-0.007461016121167607	-6.09186496757598	-6.09186496757619	1.225859641647646	0.1682341499894138	-1.156194247741683	-0.1293939412394696	2.591283465602486e-08	4.973791346671161e-08	1.487711075846459e-07	2.112055349948985e-07	-2.693293561440559e-08	-3.120508120865028e-08	3.732650259958753e-07
1.03	-0.3419910892038724	-0.02310940443062167	0.6000638430825572	1.65926518217765	-0.2304878903550085	-0.09255008163416076	-0.4363292335240699	1.542560949937132	1.542560949936813	-0.1633294819507883	0.1692963740894305	0.4357206428726104	0.1140373895297945	0.03553590325804116	0.002664639540869233	0.08306107649970869	-0.23473677852076	0.009150878589224394	-0.01964200537414858	-0.0004287143872641391	-0.2317474930847612	-0.2317474930847681	0.03041188173866607	0.003525237048920466	-0.03762138276563026	0.0008311478023339541	-0.319354612254181	0.01745127567863467	-0.001770670464324458	-0.536474174127091	0.02494851521897861	0.007184732192227805	0.3253243496267092	-0.0426677469355335	-42.99624798820408	-7.341749859206585	4.981489437781762	19.81126447283919	-826.5732260981094	58.82287462334955	1.162602739382288	0.0006452464972388578	2.175564249729412	-6.250744882315828	0.1938889504098146	-0.06006876623170641	0.04266095006856459	-6.072617955498941	-6.072617955499779	1.332552289128117	0.1548114043963878	-1.160568526408577	-0.1386902044671983	3.427265674574898e-08	6.50928405293361e-08	1.992091266810547e-07	2.838206753306866e-07	-3.43605472130995e-08	-4.159988871454039e-08	4.990385581181282e-07
1.04	-0.3415772568040807	-0.02308258303480536	0.6010031711969968	1.656605053513597	-0.2303866892614143	-0.09275129211354624	-0.436331159693323	1.539939823047104	1.539939823046487	-0.1629605261672337	0.1693395146269205	0.4352863204248426	0.114038767099568	0.04723801918490879	0.002712734642448911	0.1047934230578664	-0.2972762061946322	0.01108653804235245	-0.02060191606244152	9.664516672102491e-05	-0.2924628412714171	-0.2924628412714273	0.04337874392701666	0.005098415520865577	-0.04925077701509732	-0.0005638890651164881	-0.3194683374069056	0.01753007890379233	-0.001608662703872352	-0.5357243962319931	0.02480601935936544	0.007157406394203611	0.3255243353228112	-0.04270324469272777	-43.03251844092509	-7.347591796374041	4.968283836704778	19.73739698700615	-826.4670915469259	58.81342493725723	1.183172121222207	0.009223365585857485	2.1719292330198	-6.264186245921412	0.1936836757308439	-0.1673357863609531	0.05633656962325369	-6.073867829514284	-6.073867829513734	1.225135190928727	0.1635114162305111	-1.165383827166678	-0.1387833092884996	4.155597711513931e-08	7.911015168576285e-08	2.444917906599336e-07	3.490760709742486e-07	-4.200080130949672e-08	-5.032528684073333e-08	6.087665143672577e-07
1.05	-0.3410466161316474	-0.02305479744719154	0.6021593722801046	1.653320466645682	-0.2302662300939274	-0.09296231926099571	-0.4363252279374145	1.536712099524987	1.536712099524426	-0.1624620836045559	0.1693982379675502	0.4347354576969593	0.1140259199669445	0.05885228016741487	0.002866709207487317	0.1264241424930065	-0.3595724904018343	0.01300011450703287	-0.02160747247187666	0.00124564112063847	-0.3530561828523199	-0.3530561828523343	0.05630806689001368	0.006638385614457817	-0.0609310483469418	-0.002018310785461266	-0.3197229228868878	0.01758601803756163	-0.001350443524465494	-0.534650010620586	0.0247173097335969	0.007114443433404337	0.3259642647993983	-0.04274407629571863	-43.03915085534229	-7.351220996078357	4.950368734472039	19.51920883695827	-826.25042349022	58.77862129377738	1.14489529174117	0.02182344430461804	2.155233750848147	-6.202031292979178	0.1894738258760597	-0.06772476241013509	0.1675713689531235	-6.048225111784276	-6.048225111785234	1.326560464894265	0.1481730383857195	-1.17073843659507	-0.1505934341590162	4.880565680576922e-08	9.308566234512092e-08	2.896133497913896e-07	4.141014745961785e-07	-4.964770048394716e-08	-5.899851592381073e-08	7.179930463703523e-07
1.06	-0.3404009644083922	-0.02302480432545888	0.6035311986479814	1.649414980578718	-0.2301267793229851	-0.09318351381138031	-0.4363031281696162	1.53287921102918	1.53287921102868	-0.1618344018890604	0.1694721476556047	0.4340675143256761	0.1139981642509674	0.07024022934897078	0.00315424146621393	0.1479184800116226	-0.4214560460034233	0.01488485873329041	-0.02263539664832465	0.003330247501628038	-0.4134958360094638	-0.4134958360094846	0.06922657448937235	0.008135685006535174	-0.0726669056948555	-0.003545605735867336	-0.3199775083669065	0.01764195717132621	-0.00109222434507541	-0.5335756250091804	0.0246286001078322	0.007071480472598981	0.3264041942759496	-0.04279477457170101	-43.05380398466078	-7.350570509981194	4.925278358863684	19.3241968657454	-826.1548733372114	58.78421680797091	1.13790976103216	0.03593490432351588	2.144652849715014	-6.181640524798856	0.1879172280462634	-0.1718093397635253	0.2434586550369885	-6.043130144762515	-6.043130144762417	1.222972118201051	0.154977275927537	-1.176501030380486	-0.1533579553007507	5.454009876077475e-08	1.044961796673314e-07	3.266641558820023e-07	4.678733749610336e-07	-5.644474454643389e-08	-6.592040030162774e-08	8.039539111858669e-07
1.07	-0.3396424143430085	-0.02299119335579947	0.6051172160906435	1.644892707086039	-0.2299686533271959	-0.0934153388442459	-0.4362554416424556	1.528442848622077	1.528442848621892	-0.1610778328791197	0.1695607976697357	0.4332819481473745	0.1139547366361309	0.08144429272829384	0.003597767462726742	0.1692551599287997	-0.4829294637221255	0.01673243433566735	-0.0237360048022257	0.006372713264483753	-0.4737354546740175	-0.4737354546740046	0.08208304278659732	0.009583455426178521	-0.08445418591037669	-0.005156431997386001	-0.3200847041062817	0.01768771752972473	-0.0007455603752871193	-0.5321677033961246	0.02470200382435361	0.006991314200072003	0.3267684721486708	-0.04284940954111264	-42.99348381135642	-7.35235058121098	4.899891067745577	19.00563260805018	-825.7116796202916	58.74428851750315	1.107852536027699	0.05302096211931891	2.123683627534274	-6.119793490941454	0.1820629195997636	-0.08010242630838876	0.3594888361939739	-6.008211235450941	-6.008211235445954	1.316338737042767	0.1381893982324866	-1.181017271678143	-0.1673039192356158	6.019394296388537e-08	1.157702611737361e-07	3.632856665981019e-07	5.21046684727108e-07	-6.319658354977362e-08	-7.274912804618622e-08	8.886772405126803e-07
